<svg width="47" height="23" viewBox="0 0 47 23" fill="none" xmlns="http://www.w3.org/2000/svg">
<path d="M45.5 9.54688C46.3284 9.54688 47 10.2184 47 11.0469C47 11.8753 46.3284 12.5469 45.5 12.5469V11.0469V9.54688ZM0.439339 12.1075C-0.146446 11.5217 -0.146446 10.572 0.439339 9.98621L9.98528 0.440273C10.5711 -0.145514 11.5208 -0.145514 12.1066 0.440273C12.6924 1.02606 12.6924 1.97581 12.1066 2.56159L3.62132 11.0469L12.1066 19.5322C12.6924 20.1179 12.6924 21.0677 12.1066 21.6535C11.5208 22.2393 10.5711 22.2393 9.98528 21.6535L0.439339 12.1075ZM45.5 11.0469V12.5469H1.5V11.0469V9.54688H45.5V11.0469Z" fill="#EFEDE8"/>
</svg>
