<svg width="47" height="23" viewBox="0 0 47 23" fill="none" xmlns="http://www.w3.org/2000/svg">
<path d="M1.5 9.54688C0.671573 9.54688 0 10.2184 0 11.0469C0 11.8753 0.671573 12.5469 1.5 12.5469V11.0469V9.54688ZM46.5607 12.1075C47.1464 11.5217 47.1464 10.572 46.5607 9.98621L37.0147 0.440273C36.4289 -0.145514 35.4792 -0.145514 34.8934 0.440273C34.3076 1.02606 34.3076 1.97581 34.8934 2.56159L43.3787 11.0469L34.8934 19.5322C34.3076 20.1179 34.3076 21.0677 34.8934 21.6535C35.4792 22.2393 36.4289 22.2393 37.0147 21.6535L46.5607 12.1075ZM1.5 11.0469V12.5469H45.5V11.0469V9.54688H1.5V11.0469Z" fill="#EFEDE8"/>
</svg>
