<svg width="1440" height="596" viewBox="0 0 1440 596" fill="none" xmlns="http://www.w3.org/2000/svg">
<g clip-path="url(#clip0_250_411)">
<rect width="1440" height="1422" fill="#83372A"/>
<path d="M-510.055 717.785V1945.48H718.016H1946.09V717.785V-509.907H718.016H-510.055V717.785ZM763.173 23.4994L784.537 26.3129V30.2773C784.537 32.4513 784.153 36.4157 783.641 39.1013L782.874 44.0888L776.222 43.1936L769.57 42.4263L768.802 58.0282C768.29 66.5965 767.907 78.6177 767.907 84.6282V95.6263L792.212 71.3282C805.644 58.0282 816.518 46.6465 816.518 46.135C816.518 45.7513 814.343 44.984 811.657 44.4725C804.237 43.1936 803.853 42.6821 805.9 35.7763C807.179 31.3004 808.331 29.7658 810.122 29.7658C813.192 29.7658 865.641 35.9042 871.269 36.9273L875.491 37.6946L874.595 45.6234C874.212 49.8436 873.316 53.9359 872.804 54.4475C872.293 55.0869 867.432 54.8311 862.187 53.9359C854 52.5292 852.209 52.6571 850.29 54.1917C849.138 55.0869 835.578 69.6657 820.1 86.2907L792.084 116.727L809.098 140.642C818.309 153.942 828.926 169.032 832.636 174.275C852.592 202.666 852.848 203.049 857.581 203.689L861.931 204.328L862.315 212.896C862.698 223.255 865.641 222.616 834.171 219.035C804.365 215.582 792.212 213.792 791.7 212.769C791.445 212.385 792.084 209.316 792.98 205.991C794.259 201.77 795.538 199.852 797.329 199.596C799.504 199.213 797.073 195.248 781.85 173.892L763.685 148.443L760.231 152.151C757.161 155.221 756.393 158.034 753.835 173.38C752.3 183.099 751.276 191.284 751.532 191.668C751.916 191.923 754.73 192.691 757.801 193.202L763.429 194.097L764.069 201.003L764.836 207.909L744.241 207.014C732.983 206.502 719.295 205.863 713.795 205.351L703.689 204.584L704.584 196.783C705.096 192.435 705.736 188.598 706.119 187.959C706.375 187.447 708.55 187.064 710.98 187.064C716.225 187.064 715.33 190.645 720.575 147.42C722.749 130.155 725.308 109.694 726.331 102.021C727.355 94.2196 729.401 77.5946 730.809 64.934C732.216 52.2734 733.751 40.3802 734.135 38.4619C734.774 35.1369 734.518 34.8811 729.657 34.1138C723.773 33.2186 723.773 33.2186 725.948 25.034L727.355 19.1513L734.518 19.9186C738.484 20.1744 751.276 21.8369 763.173 23.4994ZM615.165 42.2984C632.435 47.6696 651.112 60.2023 662.241 74.0138C678.871 94.3475 686.163 126.063 680.151 152.151C677.592 163.277 669.917 179.263 662.369 188.982C635.249 224.15 586.51 234.509 546.214 213.664C532.271 206.374 514.617 189.238 507.965 176.194C498.243 157.395 494.533 135.143 497.859 115.96C503.104 86.4186 524.851 58.284 551.075 47.2859C559.262 43.8331 570.392 40.5081 576.66 39.485C584.719 38.334 607.49 39.8686 615.165 42.2984ZM980.388 74.3975C1001.88 84.1167 1022.09 93.5802 1025.29 95.4984C1038.34 103.044 1049.08 119.157 1052.03 135.271C1055.1 151.64 1048.57 171.846 1036.16 184.634C1025.55 195.76 1005.08 203.305 990.622 201.643C981.924 200.62 977.574 199.085 958.897 190.772C949.559 186.552 941.372 183.227 940.732 183.227C939.453 183.227 916.299 226.708 916.299 229.138C916.299 229.905 919.752 232.207 923.846 234.381L931.521 238.218L929.603 244.868C928.451 248.576 927.172 252.157 926.532 252.669C925.765 253.564 911.054 247.681 870.63 229.905C866.152 227.987 862.57 225.941 862.57 225.301C862.57 224.662 864.106 220.953 866.024 217.117C868.583 211.873 869.99 210.211 871.525 210.85C876.898 213.152 878.689 212.769 880.352 209.188C881.247 207.27 892.633 182.332 905.425 153.814C918.345 125.296 931.777 95.6263 935.359 87.9532C941.116 75.5484 941.627 73.758 939.837 72.6071C932.801 68.259 932.673 68.0032 936.255 61.9927C938.046 59.0513 939.837 56.6215 940.348 56.6215C940.86 56.6215 958.897 64.5504 980.388 74.3975ZM422.768 110.205C432.618 113.53 438.758 117.75 446.689 126.446C460.889 141.921 465.11 163.021 458.202 183.227C452.574 199.085 443.747 207.781 417.778 223.127C410.487 227.347 404.602 231.056 404.602 231.44C404.602 233.358 429.42 277.862 430.571 277.862C431.211 277.862 434.664 276.071 438.118 274.025C441.444 271.851 444.77 270.189 445.282 270.189C445.794 270.189 448.352 273.002 450.911 276.455C455.26 282.21 455.516 282.849 453.469 284.512C451.039 286.558 397.311 320.064 396.415 320.064C396.031 320.064 393.985 316.867 391.682 312.774L387.588 305.613L390.914 302.927C392.833 301.393 394.368 299.73 394.368 299.346C394.368 298.579 365.585 250.622 345.885 218.395C342.815 213.408 334.884 200.364 328.232 189.238C321.452 178.24 315.439 169.16 314.8 169.16C314.16 169.16 311.857 170.055 309.811 171.206C307.636 172.229 305.717 172.996 305.461 172.741C304.566 171.846 300.984 162.254 300.984 160.847C300.984 159.569 366.993 118.901 380.297 112.123C391.81 106.241 408.952 105.473 422.768 110.205ZM1179.69 197.934C1184.17 205.351 1184.68 205.735 1193 208.037C1197.73 209.444 1201.57 211.106 1201.57 211.745C1201.57 212.385 1199.01 218.779 1195.94 225.941C1187.37 245.251 1169.97 285.535 1157.44 314.309C1151.3 328.376 1142.34 349.094 1137.48 360.219L1128.52 380.553L1131.34 383.494L1134.15 386.564L1129.16 392.191C1126.48 395.26 1123.54 398.073 1122.64 398.457C1121.23 399.224 1073.65 351.523 1073.65 349.349C1073.65 348.838 1075.95 346.536 1078.89 344.362L1084.01 340.142L1087.08 343.083C1088.87 344.745 1090.53 345.896 1090.79 345.513C1091.04 345.257 1095.14 337.2 1099.87 327.737L1108.44 310.6L1094.24 296.661C1081.19 283.872 1079.91 282.977 1077.23 284.384C1071.98 287.197 1045.5 304.718 1045.5 305.357C1045.5 305.741 1047.55 307.787 1049.98 309.961C1052.41 312.135 1054.46 314.437 1054.46 315.204C1054.46 317.122 1045.37 327.737 1043.71 327.737C1042.94 327.737 1031.94 317.506 1019.41 304.845L996.635 282.082L1000.86 278.885C1007.76 273.77 1008.15 273.77 1012.63 277.095C1015.06 279.013 1017.36 280.42 1017.74 280.42C1018.38 280.42 1053.05 260.214 1054.46 259.063C1054.84 258.679 1053.56 257.145 1051.64 255.482C1049.6 253.82 1048.06 251.645 1048.19 250.75C1048.19 248.96 1059.96 239.496 1062.13 239.496C1062.77 239.496 1065.59 241.415 1068.27 243.845L1073.13 248.32L1094.88 235.404C1106.78 228.37 1128.27 215.582 1142.72 207.27C1157.18 198.829 1169.46 191.412 1170.23 190.772C1172.66 188.47 1175.09 190.389 1179.69 197.934ZM276.422 240.136C300.6 247.553 322.731 265.457 332.837 285.535C357.27 333.747 338.721 390.4 291.39 412.908C267.979 424.034 241.115 425.313 218.601 416.361L210.797 413.292L206.064 418.791C202.354 423.011 201.587 424.545 202.738 425.952C204.017 427.487 225.381 443.344 246.744 458.691L253.78 463.806L256.722 460.097L259.664 456.389L266.316 461.248C269.898 463.934 272.841 466.619 272.841 467.259C272.841 468.026 264.398 478.641 254.036 491.045L235.231 513.425L230.881 508.693C228.195 505.88 226.788 503.194 227.172 501.916C229.602 494.626 229.858 495.01 213.74 482.477C197.749 469.944 187.899 462.271 151.313 433.242C115.75 405.107 113.191 403.189 111.912 403.189C111.272 403.189 109.226 405.491 107.307 408.304L103.853 413.547L98.0963 409.327C89.0137 402.805 89.0137 402.805 94.5144 395.26C105.26 380.553 120.995 359.069 122.018 357.918C123.169 356.639 128.542 358.557 132.636 361.626C135.066 363.417 135.066 363.544 132.636 368.02C131.229 370.834 130.717 372.88 131.484 373.519C133.403 375.31 177.025 407.537 180.863 410.094C184.317 412.268 184.317 412.268 188.283 406.897L192.12 401.526L183.422 392.318C168.71 376.844 161.547 360.859 158.988 338.351C153.871 292.057 184.957 249.344 231.393 238.985C242.523 236.427 266.7 237.067 276.422 240.136ZM1290.48 316.994C1294.06 323.644 1294.19 324.156 1292.14 325.691C1290.86 326.586 1289.84 327.737 1289.84 328.12C1289.84 328.632 1301.99 350.244 1316.83 376.333C1340.49 417.895 1344.2 423.65 1346.38 422.883C1348.17 422.371 1350.22 423.267 1353.29 426.336C1355.72 428.638 1357.64 431.195 1357.64 431.835C1357.64 433.114 1317.85 458.435 1314.53 459.202C1312.99 459.586 1305.19 448.716 1305.19 446.158C1305.19 445.391 1308.13 443.089 1311.58 441.17L1318.11 437.462L1311.07 424.545C1307.23 417.256 1303.4 411.629 1302.5 411.885C1301.61 412.141 1275.51 425.568 1244.55 441.81C1213.47 458.051 1187.11 471.863 1185.83 472.502C1183.79 473.525 1183.79 473.909 1186.22 478.641C1189.67 485.418 1189.54 486.314 1184.17 490.662C1180.33 493.731 1179.31 493.987 1177.9 492.58C1176.24 490.79 1153.47 456.005 1147.07 445.518C1143.24 439.252 1143.49 438.868 1152.7 433.753L1158.33 430.684L1160.89 434.265C1162.3 436.183 1163.83 437.718 1164.34 437.718C1165.49 437.718 1175.86 432.091 1199.65 418.407C1208.86 413.036 1230.1 400.887 1246.98 391.295C1263.87 381.832 1278.71 373.136 1279.99 372.241C1282.16 370.578 1281.78 369.555 1274.61 355.871C1270.26 347.815 1266.3 340.781 1265.79 340.269C1265.15 339.63 1260.29 341.165 1254.91 343.722L1245.06 348.07L1243.27 343.85C1239.31 334.387 1238.16 335.794 1261.44 322.366C1273.21 315.588 1283.7 309.961 1284.72 309.961C1285.87 309.833 1288.3 312.774 1290.48 316.994ZM1395.25 496.417C1398.32 509.844 1398.19 510.228 1391.54 511.123C1388.08 511.763 1385.78 512.658 1385.78 513.681C1385.78 515.343 1389.75 534.91 1396.65 566.114C1398.44 574.554 1399.47 581.716 1398.96 582.227C1398.06 582.867 1391.28 585.041 1380.41 588.11C1378.74 588.621 1378.1 587.087 1376.83 580.053C1374.65 566.881 1375.03 567.137 1361.86 570.462C1333.33 577.623 1323.74 580.565 1323.99 582.355C1324.12 583.378 1325.53 589.9 1327.19 596.934C1329.24 605.758 1330.13 613.687 1330.13 622.511C1330.13 634.276 1329.88 635.939 1325.91 644.123C1316.32 664.457 1301.99 675.071 1280.11 678.268C1257.98 681.466 1233.04 668.293 1222.8 648.088C1220.25 642.972 1216.66 629.416 1210.4 601.154C1205.53 579.286 1201.57 560.998 1201.57 560.487C1201.57 559.336 1211.04 555.371 1213.59 555.371C1214.62 555.371 1215.77 557.162 1216.28 559.336C1216.79 561.51 1217.94 563.556 1218.84 563.812C1219.73 564.195 1237.64 560.742 1258.62 556.267C1279.73 551.791 1312.86 544.629 1332.44 540.537C1371.84 532.224 1369.02 533.759 1366.46 522.121C1364.93 514.832 1365.82 515.088 1349.58 517.517L1338.19 519.18L1335.63 513.297C1334.23 510.1 1332.82 505.88 1332.44 504.09C1331.8 500.765 1332.05 500.637 1341.13 498.591C1371.58 491.813 1390.39 487.848 1391.79 487.72C1392.56 487.593 1394.09 491.557 1395.25 496.417ZM60.1028 495.777C62.7892 496.8 75.1979 500.892 87.8623 504.857L110.633 512.146L109.865 517.901C109.482 521.098 109.098 524.679 109.098 525.83C108.97 531.201 107.563 531.329 91.9559 527.492C83.7688 525.318 76.8609 524.04 76.605 524.551C75.4537 526.597 64.3243 568.543 64.836 569.055C65.8594 570.078 105.772 575.961 108.97 575.577C111.4 575.321 112.424 574.17 113.191 570.717C120.355 541.304 124.577 532.224 135.706 521.993C154.895 504.473 180.351 501.916 204.017 515.088C215.403 521.482 226.276 536.317 230.114 550.895C233.184 562.277 232.928 564.067 221.671 616.756C219.496 626.987 216.81 640.159 215.658 646.041C214.379 651.924 212.844 656.912 211.949 657.295C211.181 657.551 207.471 657.04 203.634 656.016C196.726 654.354 196.726 654.226 196.726 649.366V644.379L125.728 626.859C86.711 617.14 54.3462 609.211 53.9625 609.083C53.4508 609.083 52.4274 611.641 51.5319 614.838C50.6364 618.035 49.4851 620.976 48.8455 621.36C47.0546 622.511 30.6803 614.326 31.4478 612.664C31.7037 611.768 35.2856 597.445 39.3791 580.948C43.4727 564.451 48.5897 543.606 50.8923 534.526L54.9859 518.285L49.4851 516.878C46.415 516.111 43.8565 515.088 43.8565 514.576C43.8565 513.809 48.3338 499.23 49.6131 495.521C50.3806 493.475 54.2183 493.603 60.1028 495.777ZM276.039 743.617C276.294 745.28 276.806 752.058 276.934 758.708L277.318 770.857L270.282 771.752C263.246 772.775 159.884 782.622 67.5224 791.318C40.7863 793.748 16.2249 796.178 13.0268 796.562L7.01434 797.329L6.2468 792.341C5.86303 789.656 5.22341 783.901 4.83963 779.553C3.94416 771.752 3.94416 771.752 7.65396 770.985C9.57282 770.601 65.9873 764.207 132.764 756.662C199.668 749.244 257.745 742.722 261.967 742.083C274.631 740.42 275.271 740.548 276.039 743.617ZM1296.87 783.773C1368.64 794.004 1427.87 802.956 1428.38 803.467C1429.4 804.363 1426.84 826.359 1425.56 828.021C1425.18 828.533 1418.53 828.021 1410.98 827.126C1391.92 824.568 1336.66 817.535 1281.52 810.501C1170.74 796.434 1156.67 794.515 1155.64 794.004C1154.75 793.365 1155.52 787.226 1158.71 769.194C1159.35 765.741 1159.99 765.102 1162.94 765.102C1164.85 765.102 1225.11 773.542 1296.87 783.773ZM1206.81 892.475C1212.06 895.033 1213.21 896.184 1212.57 898.23C1212.19 899.509 1211.55 901.683 1211.16 902.834C1210.52 904.624 1212.95 906.542 1222.93 911.658C1229.84 915.238 1254.53 928.155 1277.68 940.304C1300.97 952.453 1325.14 965.113 1331.67 968.566L1343.44 974.833L1346 971.508C1347.4 969.717 1348.68 967.671 1348.94 966.904C1349.58 964.986 1360.07 972.403 1360.07 974.833C1360.19 977.263 1326.42 1040.44 1320.92 1048.24C1313.37 1058.98 1294.44 1068.19 1280.24 1068.19C1264.12 1068.19 1245.7 1057.7 1237 1043.63C1234.83 1040.18 1234.83 1040.18 1229.46 1042.1C1220.5 1045.17 1207.2 1045.81 1197.86 1043.38C1174.71 1037.5 1158.97 1020.49 1154.24 996.317C1151.55 983.145 1153.98 972.787 1163.83 953.732C1168.18 945.291 1177.14 928.027 1183.66 915.366C1196.2 891.068 1197.35 889.15 1199.27 889.15C1199.91 889.15 1203.23 890.685 1206.81 892.475ZM191.737 900.788C206.576 905.263 220.392 915.494 228.067 927.388C230.114 930.329 230.114 930.329 234.335 928.283C237.15 926.748 238.301 925.469 237.789 924.063C235.103 917.285 235.359 916.773 242.906 913.064C246.872 911.018 250.582 909.867 251.221 910.507C251.733 911.018 257.618 924.446 264.398 940.304C277.702 971.891 277.702 971.124 267.979 972.914C263.502 973.81 261.199 972.403 259.664 968.055C259.153 966.264 251.093 969.462 251.093 971.508C251.221 972.275 251.989 976.367 253.012 980.588C262.735 1020.74 230.37 1061.67 188.794 1061.79C167.303 1061.79 142.486 1048.49 132.508 1031.49C129.054 1025.6 127.647 1024.96 123.937 1027.65C122.018 1029.06 121.89 1029.82 123.041 1032.12C123.809 1033.53 124.449 1035.32 124.449 1035.96C124.449 1037.75 110.249 1044.27 108.97 1043C108.458 1042.48 103.853 1033.66 98.7359 1023.43C93.7469 1013.2 88.2461 1002.2 86.5831 998.875L83.5129 992.864L88.8857 989.028C91.828 986.854 94.5144 985.063 94.8982 985.063C95.4099 985.063 96.945 987.11 98.608 989.539C101.422 994.015 101.55 994.015 105.26 992.097C107.307 991.074 109.226 989.667 109.609 989.028C110.121 988.388 109.482 984.168 108.458 979.692C104.748 964.09 106.411 950.151 113.703 935.444C127.903 906.287 161.419 891.452 191.737 900.788ZM1142.72 1022.92L1148.1 1028.8L1144.64 1032.38L1141.19 1035.96L1176.11 1073.56C1230.35 1131.87 1245.32 1147.48 1246.98 1147.48C1247.75 1147.48 1249.54 1146.33 1250.82 1144.92C1252.1 1143.51 1253.63 1142.36 1254.15 1142.36C1255.81 1142.36 1262.08 1152.21 1261.44 1153.87C1260.54 1156.56 1225.36 1188.4 1223.32 1188.4C1222.16 1188.4 1201.44 1179.45 1177.14 1168.58C1152.96 1157.58 1131.85 1148.37 1130.32 1147.99C1127.63 1147.22 1128.01 1148.76 1136.46 1181.62C1141.32 1200.42 1147.46 1224.34 1150.02 1234.69L1154.88 1253.49L1140.81 1266.79C1133 1274.08 1124.3 1282.14 1121.36 1284.82L1115.99 1289.56L1112.53 1283.55C1109.59 1278.56 1109.34 1277.15 1110.62 1275.11C1111.89 1272.93 1111.51 1272.04 1108.06 1267.94C1102.17 1261.29 1026.19 1179.45 1015.82 1168.58L1007.25 1159.63L1003.93 1162.82L1000.73 1165.89L994.972 1160.27C991.774 1157.07 989.343 1153.87 989.471 1153.1C989.983 1151.19 1033.35 1115.51 1035.14 1115.51C1035.91 1115.51 1037.95 1117.81 1039.87 1120.75L1043.2 1125.99L1040.26 1129.06L1037.44 1132L1040.64 1136.22C1042.43 1138.52 1051 1148.5 1059.57 1158.35C1068.14 1168.19 1080.17 1181.88 1086.05 1188.78C1092.07 1195.69 1097.31 1201.06 1097.57 1200.8C1097.82 1200.42 1096.29 1193.13 1094.24 1184.44C1086.18 1150.67 1081.32 1128.04 1081.96 1127.14C1082.22 1126.5 1087.08 1124.2 1092.71 1121.9C1102.43 1118.06 1102.94 1117.55 1105.5 1111.54C1107.03 1108.09 1109.08 1105.27 1110.1 1105.27C1111 1105.27 1119.19 1107.96 1128.27 1111.16C1165.11 1124.33 1177.52 1128.42 1178.16 1127.91C1178.41 1127.53 1174.96 1122.67 1170.23 1117.17C1165.49 1111.67 1152.19 1095.81 1140.55 1082L1119.31 1056.81L1114.45 1060.64C1109.08 1064.86 1107.16 1064.86 1101.28 1059.88L1097.44 1056.81L1112.79 1040.69C1121.1 1031.87 1129.42 1022.92 1131.21 1020.87C1133 1018.95 1135.05 1017.16 1135.82 1017.16C1136.58 1017.03 1139.65 1019.72 1142.72 1022.92ZM376.587 1086.99C387.333 1098.11 398.206 1109.37 400.637 1112.18L405.242 1117.17L398.846 1122.67L392.577 1128.29L389.891 1125.74C388.356 1124.33 386.437 1123.18 385.542 1123.18C384.007 1123.18 345.373 1160.01 294.716 1209.63L275.015 1229.07L277.702 1232.52C279.237 1234.44 280.516 1236.61 280.516 1237.12C280.516 1238.66 270.666 1245.05 269.387 1244.41C268.747 1244.29 253.78 1228.94 236.126 1210.4C201.203 1174.08 197.877 1169.35 194.551 1152.98C190.074 1129.83 202.738 1103.87 223.974 1092.74C234.975 1087.12 241.883 1085.71 255.059 1086.35C272.841 1087.37 280.644 1091.85 300.984 1112.18L316.974 1128.17L331.686 1115.25C339.745 1108.09 348.955 1100.16 351.898 1097.47L357.526 1092.61L351.642 1086.35C348.444 1082.9 345.757 1079.7 345.757 1079.19C345.757 1077.78 354.84 1066.91 355.991 1066.91C356.503 1066.91 365.713 1075.99 376.587 1086.99ZM422.895 1122.67C432.234 1127.4 436.583 1133.92 436.583 1143.26C436.455 1161.03 418.162 1171.26 402.556 1162.18C392.961 1156.56 389.123 1143.64 394.24 1133.67C397.183 1127.91 400.125 1125.22 405.882 1122.67C411.766 1120.11 417.778 1120.11 422.895 1122.67ZM458.586 1138.65L463.447 1139.93L461.529 1144.54C460.505 1146.97 459.61 1149.27 459.61 1149.52C459.61 1149.65 464.215 1152.34 469.971 1155.41C494.533 1168.45 510.268 1188.78 517.303 1216.41C519.478 1225.1 519.862 1229.83 519.478 1241.34C518.583 1265.77 509.628 1285.85 491.719 1303.5C462.936 1332.01 419.314 1338.28 382.727 1319.35C379.273 1317.56 379.017 1317.69 377.099 1321.4C375.947 1323.45 374.54 1325.24 373.773 1325.24C372.749 1325.24 359.957 1319.23 358.678 1318.07C358.422 1317.95 362.771 1310.02 368.272 1300.68C373.645 1291.35 379.529 1281.24 381.32 1278.17C383.111 1275.11 385.158 1272.29 386.053 1271.91C386.949 1271.65 389.891 1272.68 392.45 1274.34C396.543 1276.9 397.055 1277.79 396.415 1281.24C395.903 1285.21 396.159 1285.46 403.451 1288.79C414.58 1293.78 424.303 1295.31 434.664 1293.52C458.33 1289.56 476.112 1273.32 482.124 1249.78C488.137 1226.38 475.984 1200.17 453.469 1187.5C445.666 1183.16 445.026 1183.03 443.747 1185.07C439.781 1191.47 439.909 1191.47 434.537 1188.66C423.535 1182.9 423.407 1184.82 435.304 1162.7C450.911 1133.79 448.864 1135.84 458.586 1138.65ZM986.529 1158.86C990.111 1167.17 989.983 1168.71 985.378 1170.24C982.435 1171.26 981.796 1172.16 982.435 1173.95C982.819 1175.23 991.006 1194.92 1000.47 1217.81C1009.94 1240.7 1020.17 1265.39 1023.12 1272.8C1041.02 1316.54 1039.11 1313.6 1047.93 1312.32C1050.62 1311.81 1051.26 1312.58 1052.67 1318.2C1053.56 1321.66 1054.2 1324.72 1053.94 1324.85C1053.43 1325.49 997.786 1348.26 996.891 1348.26C995.867 1348.26 991.774 1339.82 991.774 1337.51C991.774 1336.62 994.076 1334.06 996.891 1331.76C1001.88 1327.79 1002.01 1327.67 1000.22 1323.57C988.959 1296.59 960.432 1235.97 959.665 1237.25C959.153 1238.15 958.386 1261.93 958.002 1290.07C957.49 1318.2 956.85 1346.72 956.467 1353.5L955.699 1365.78L934.975 1374.34L914.38 1382.91L911.437 1379.33C907.344 1374.09 906.576 1371.02 909.263 1369.36C915.275 1365.78 915.403 1365.39 913.996 1361.56C913.228 1359.51 909.774 1350.94 906.32 1342.5C881.375 1282.52 858.989 1228.3 858.221 1226.25C857.709 1224.59 856.686 1224.21 854.895 1224.72C853.488 1225.1 851.313 1225.87 850.034 1226.25C848.243 1226.77 847.22 1225.49 844.917 1220.12C843.382 1216.41 842.103 1212.7 842.103 1211.93C842.103 1211.16 846.324 1208.99 851.441 1207.2C882.527 1196.2 898.773 1190.83 899.285 1191.34C899.54 1191.72 900.18 1195.05 900.564 1198.89L901.203 1205.79L895.959 1207.58C893.144 1208.48 890.714 1209.88 890.714 1210.78C890.714 1211.55 897.11 1225.74 904.785 1242.24C912.589 1258.74 920.52 1275.49 922.311 1279.45C925.893 1287.64 927.812 1288.79 927.812 1283.16C927.812 1279.71 928.707 1263.85 931.649 1210.78C932.417 1198.12 933.312 1184.82 933.696 1181.24L934.336 1174.59L942.267 1171.01C946.617 1169.09 957.106 1164.1 965.549 1160.14C973.992 1156.05 981.54 1152.59 982.307 1152.59C983.075 1152.59 984.994 1155.41 986.529 1158.86ZM567.45 1191.85L567.194 1197.1L573.846 1198.63C603.78 1205.41 626.806 1223.44 640.238 1250.42C646.507 1263.08 648.298 1272.04 648.17 1290.71C648.042 1306.44 647.786 1309 644.204 1319.1C635.761 1343.65 620.026 1361.3 596.488 1373.19C577.172 1382.91 553.122 1385.21 531.759 1379.46C529.456 1378.82 528.689 1379.46 527.409 1383.3C525.746 1388.41 525.746 1388.41 515.896 1386.11C510.268 1384.83 508.86 1383.94 508.988 1382.02C509.244 1379.46 523.444 1332.65 524.211 1331.76C524.595 1331.5 527.537 1332.4 530.863 1333.8C535.98 1335.85 537.004 1336.87 537.004 1339.56C537.004 1341.48 537.26 1343.27 537.643 1343.65C538.027 1344.04 542.377 1344.93 547.366 1345.7C584.464 1351.45 617.596 1318.84 612.095 1281.88C610.432 1270.63 605.571 1260.4 597.512 1251.7C589.964 1243.39 582.928 1238.91 571.927 1235.59C561.309 1232.39 559.39 1232.52 559.39 1235.97C559.39 1241.47 558.111 1241.98 549.54 1239.81C545.063 1238.66 541.481 1237 541.481 1236.23C541.481 1235.46 544.423 1224.08 547.877 1210.91C551.459 1197.74 554.273 1186.74 554.273 1186.35C554.273 1185.97 557.344 1185.84 561.053 1186.1L567.705 1186.48L567.45 1191.85ZM837.881 1219.99C837.369 1222.67 836.986 1225.87 836.986 1227.02C836.986 1228.81 835.834 1229.32 831.997 1229.32C829.31 1229.32 826.496 1230.09 825.728 1230.86C825.089 1231.75 822.658 1240.58 820.483 1250.42C818.181 1260.27 816.134 1269.35 815.75 1270.5C815.111 1272.42 816.006 1272.8 820.995 1272.8H827.008L826.112 1281.37C825.6 1286.23 824.705 1290.58 824.065 1291.22C823.554 1291.86 820.1 1292.63 816.518 1293.01C811.273 1293.52 809.994 1294.03 809.482 1296.33C805.516 1313.34 800.016 1336.87 796.69 1351.45C794.387 1361.3 790.677 1377.41 788.374 1387.26C786.072 1397.11 783.769 1405.68 783.258 1406.32C782.618 1406.95 778.268 1406.44 773.152 1405.16L764.069 1402.99L756.266 1407.59C751.916 1410.15 748.078 1412.07 747.823 1411.81C747.311 1411.17 740.403 1395.06 727.611 1364.24C723.773 1355.03 710.725 1323.96 698.572 1295.18C676.441 1242.88 676.441 1242.75 672.475 1242.37C668.51 1241.98 668.51 1241.86 667.614 1233.54C667.102 1228.94 667.102 1224.85 667.486 1224.46C667.87 1223.95 683.733 1223.44 702.665 1223.18L737.205 1222.67V1227.15C737.205 1234.44 735.158 1238.27 731.448 1238.27C729.657 1238.27 728.25 1239.04 728.25 1239.81C728.25 1240.7 731.064 1248.89 734.391 1258.1L740.531 1274.72L759.975 1274.59C770.721 1274.59 779.804 1274.08 780.187 1273.7C781.083 1272.93 788.374 1238.02 788.374 1234.82C788.374 1233.8 786.328 1233.54 781.467 1234.05C777.757 1234.44 774.303 1234.31 773.919 1233.67C773.535 1233.03 773.024 1229.07 772.896 1224.85L772.384 1217.17L783.897 1216.53C790.293 1216.15 805.133 1215.77 817.029 1215.51L838.649 1215.13L837.881 1219.99Z" fill="#3F3F3F"/>
<path d="M581.777 75.4205C574.357 76.4436 560.542 82.582 554.401 87.3138C546.854 93.3244 539.946 102.532 536.236 111.612C530.607 125.679 532.654 146.524 541.097 160.975C544.935 167.881 556.064 178.368 563.356 181.948C585.231 193.202 612.095 188.982 629.237 171.718C657.508 143.455 649.193 97.1609 612.863 80.2801C603.396 75.932 590.86 74.0138 581.777 75.4205Z" fill="#3F3F3F"/>
<path d="M970.038 113.787C967.608 120.309 966.329 123.634 961.723 135.527C959.293 142.049 957.246 147.932 957.246 148.699C957.246 150.873 986.541 164.301 992.681 164.941C1000.1 165.836 1003.81 164.685 1009.57 159.569C1018.65 151.385 1019.03 138.98 1010.59 130.156C1007.01 126.447 997.542 121.588 975.411 112.124C971.446 110.334 971.19 110.334 970.038 113.787Z" fill="#3F3F3F"/>
<path d="M380.919 153.431C370.301 159.825 364.289 164.301 364.289 165.58C364.289 168.266 385.524 198.574 387.315 198.574C388.083 198.574 395.503 194.354 403.946 189.111C421.215 178.624 425.053 174.02 425.053 164.173C425.053 152.536 417.378 144.607 405.225 143.84C397.549 143.456 397.421 143.456 380.919 153.431Z" fill="#3F3F3F"/>
<path d="M1134.4 247.425C1130.95 249.727 1121.22 255.993 1112.91 261.364L1097.94 271.211L1107.79 280.291C1113.29 285.279 1118.03 289.371 1118.41 289.371C1118.92 289.371 1134.53 258.295 1141.18 244.228C1141.82 242.821 1141.18 243.077 1134.4 247.425Z" fill="#3F3F3F"/>
<path d="M238.698 274.662C218.742 279.138 203.263 293.461 196.739 313.539C194.948 318.91 194.692 323.13 195.076 332.466C195.715 342.953 196.355 345.638 200.321 353.695C208.764 370.831 223.603 382.085 242.152 385.41C263.771 389.247 286.542 378.632 299.078 359.066C305.858 348.579 307.777 340.651 307.137 327.223C306.114 308.935 299.078 295.252 285.262 284.893C271.702 274.662 254.816 270.954 238.698 274.662Z" fill="#3F3F3F"/>
<path d="M1265.9 592.97C1255.92 594.376 1247.48 595.911 1247.09 596.295C1245.94 597.574 1252.98 627.626 1255.54 632.23C1259.38 639.136 1266.67 642.717 1275.24 642.077C1283.43 641.438 1287.9 638.497 1292.12 631.335C1295.58 625.58 1295.32 620.465 1290.97 601.538C1288.93 592.458 1287.9 589.9 1286.24 590.028C1284.96 590.156 1275.88 591.435 1265.9 592.97Z" fill="#3F3F3F"/>
<path d="M168.197 543.478C166.662 543.862 163.08 546.164 160.394 548.721C156.556 552.302 154.765 555.499 152.846 562.405C149.136 575.194 146.962 585.936 147.857 586.831C149.52 588.494 186.362 598.852 187.258 597.957C187.642 597.318 189.816 589.389 192.119 580.309C195.317 566.625 195.829 562.789 194.805 558.952C191.607 547.443 180.734 541.048 168.197 543.478Z" fill="#3F3F3F"/>
</g>
<defs>
<clipPath id="clip0_250_411">
<rect width="1440" height="1422" fill="white"/>
</clipPath>
</defs>
</svg>
