<svg width="93" height="92" viewBox="0 0 93 92" fill="none" xmlns="http://www.w3.org/2000/svg">
<g clip-path="url(#clip0_354_400)">
<rect width="93" height="92" fill="#83372A"/>
<path d="M-32.9414 46.4385V125.867H46.3715H125.684V46.4385V-32.9903H46.3715H-32.9414V46.4385ZM49.2879 1.51986L50.6676 1.70188V1.95837C50.6676 2.09902 50.6428 2.35551 50.6098 2.52926L50.5602 2.85194L50.1306 2.79403L49.701 2.74438L49.6514 3.75379C49.6184 4.30814 49.5936 5.08588 49.5936 5.47475V6.18629L51.1633 4.61427C52.0308 3.75379 52.7331 3.01742 52.7331 2.98432C52.7331 2.9595 52.5926 2.90986 52.4191 2.87676C51.9399 2.79403 51.9151 2.76093 52.0473 2.31414C52.13 2.02456 52.2043 1.92527 52.32 1.92527C52.5183 1.92527 55.9056 2.32242 56.2691 2.38861L56.5417 2.43825L56.4839 2.95123C56.4591 3.22426 56.4013 3.48903 56.3682 3.52212C56.3352 3.56349 56.0212 3.54694 55.6825 3.48903C55.1538 3.39802 55.0381 3.40629 54.9142 3.50558C54.8398 3.56349 53.9641 4.50671 52.9644 5.58231L51.1551 7.55148L52.2539 9.09868C52.8487 9.95916 53.5345 10.9355 53.774 11.2747C55.0629 13.1115 55.0794 13.1363 55.3851 13.1777L55.666 13.219L55.6908 13.7734C55.7156 14.4436 55.9056 14.4022 53.8732 14.1705C51.9482 13.9471 51.1633 13.8313 51.1303 13.7651C51.1138 13.7403 51.1551 13.5417 51.2129 13.3266C51.2955 13.0536 51.3781 12.9295 51.4938 12.9129C51.6342 12.8881 51.4773 12.6316 50.4941 11.2499L49.321 9.60338L49.0979 9.84333C48.8996 10.0419 48.85 10.2239 48.6848 11.2168C48.5857 11.8456 48.5196 12.3751 48.5361 12.3999C48.5609 12.4165 48.7426 12.4661 48.9409 12.4992L49.3044 12.5571L49.3457 13.0039L49.3953 13.4507L48.0652 13.3928C47.3381 13.3597 46.4541 13.3183 46.0989 13.2852L45.4462 13.2356L45.504 12.7309C45.5371 12.4496 45.5784 12.2014 45.6032 12.16C45.6197 12.1269 45.7601 12.1021 45.9171 12.1021C46.2558 12.1021 46.198 12.3337 46.5367 9.53719C46.6772 8.42023 46.8424 7.09642 46.9085 6.59999C46.9746 6.09528 47.1068 5.01969 47.1977 4.20058C47.2886 3.38147 47.3877 2.612 47.4125 2.48789C47.4538 2.27277 47.4373 2.25623 47.1233 2.20658C46.7433 2.14867 46.7433 2.14867 46.8837 1.61914L46.9746 1.23855L47.4373 1.28819C47.6934 1.30474 48.5196 1.4123 49.2879 1.51986ZM39.729 2.73611C40.8444 3.08361 42.0506 3.89444 42.7694 4.78802C43.8434 6.10356 44.3143 8.15547 43.926 9.84333C43.7608 10.5631 43.2651 11.5974 42.7776 12.2262C41.0261 14.5015 37.8784 15.1717 35.276 13.823C34.3754 13.3514 33.2353 12.2427 32.8057 11.3988C32.1778 10.1826 31.9382 8.74291 32.153 7.50183C32.4917 5.59058 33.8962 3.77034 35.5899 3.05879C36.1187 2.8354 36.8374 2.62028 37.2423 2.55409C37.7627 2.47962 39.2333 2.57891 39.729 2.73611ZM63.3164 4.81284C64.7044 5.44165 66.0097 6.05391 66.2163 6.17802C67.059 6.66618 67.7529 7.70868 67.943 8.75118C68.1412 9.81023 67.7199 11.1175 66.9185 11.9449C66.2328 12.6647 64.9109 13.1529 63.9773 13.0453C63.4155 12.9791 63.1346 12.8798 61.9284 12.342C61.3253 12.069 60.7965 11.8539 60.7552 11.8539C60.6726 11.8539 59.1772 14.667 59.1772 14.8242C59.1772 14.8738 59.4003 15.0227 59.6647 15.1634L60.1604 15.4116L60.0365 15.8418C59.9621 16.0818 59.8795 16.3135 59.8382 16.3466C59.7886 16.4045 58.8385 16.0239 56.2278 14.8738C55.9386 14.7497 55.7073 14.6173 55.7073 14.576C55.7073 14.5346 55.8064 14.2946 55.9304 14.0464C56.0956 13.7072 56.1865 13.5996 56.2856 13.641C56.6326 13.7899 56.7483 13.7651 56.8557 13.5335C56.9135 13.4093 57.6488 11.7959 58.475 9.95089C59.3094 8.10582 60.1769 6.18629 60.4082 5.68987C60.78 4.8873 60.8131 4.77147 60.6974 4.69701C60.243 4.4157 60.2347 4.39915 60.4661 4.01028C60.5817 3.81998 60.6974 3.66278 60.7304 3.66278C60.7635 3.66278 61.9284 4.17575 63.3164 4.81284ZM27.3034 7.12951C27.9395 7.34463 28.3361 7.61767 28.8483 8.18029C29.7654 9.18142 30.038 10.5466 29.5919 11.8539C29.2284 12.8798 28.6583 13.4424 26.9812 14.4353C26.5102 14.7083 26.1302 14.9483 26.1302 14.9731C26.1302 15.0972 27.733 17.9765 27.8073 17.9765C27.8486 17.9765 28.0717 17.8607 28.2948 17.7283C28.5096 17.5876 28.7244 17.4801 28.7574 17.4801C28.7905 17.4801 28.9557 17.6621 29.1209 17.8855C29.4018 18.2578 29.4184 18.2992 29.2862 18.4067C29.1292 18.5391 25.6593 20.7069 25.6014 20.7069C25.5767 20.7069 25.4445 20.5 25.2958 20.2353L25.0314 19.7719L25.2462 19.5982C25.3701 19.4989 25.4692 19.3913 25.4692 19.3665C25.4692 19.3169 23.6104 16.2142 22.338 14.1292C22.1398 13.8065 21.6275 12.9626 21.1979 12.2427C20.76 11.5312 20.3717 10.9437 20.3304 10.9437C20.2891 10.9437 20.1404 11.0017 20.0082 11.0761C19.8678 11.1423 19.7438 11.192 19.7273 11.1754C19.6695 11.1175 19.4382 10.497 19.4382 10.4059C19.4382 10.3232 23.7012 7.69213 24.5605 7.25362C25.304 6.87302 26.4111 6.82338 27.3034 7.12951ZM76.1882 12.8054C76.4774 13.2852 76.5104 13.3101 77.0474 13.459C77.3531 13.55 77.601 13.6576 77.601 13.6989C77.601 13.7403 77.4357 14.154 77.2374 14.6173C76.6839 15.8667 75.5603 18.4729 74.7507 20.3345C74.3541 21.2447 73.7758 22.585 73.4618 23.3048L72.8835 24.6204L73.0653 24.8107L73.247 25.0092L72.9248 25.3733C72.7513 25.5719 72.5613 25.7539 72.5035 25.7787C72.4126 25.8284 69.3392 22.7422 69.3392 22.6016C69.3392 22.5685 69.4879 22.4195 69.6779 22.2789L70.0084 22.0058L70.2067 22.1961C70.3224 22.3037 70.4298 22.3782 70.4463 22.3534C70.4628 22.3368 70.7272 21.8156 71.0329 21.2033L71.5864 20.0946L70.6693 19.1927C69.8266 18.3654 69.744 18.3074 69.5705 18.3985C69.2318 18.5805 67.5216 19.714 67.5216 19.7554C67.5216 19.7802 67.6538 19.9126 67.8108 20.0532C67.9678 20.1939 68.0999 20.3428 68.0999 20.3925C68.0999 20.5166 67.5134 21.2033 67.406 21.2033C67.3564 21.2033 66.6459 20.5414 65.8362 19.7223L64.3656 18.2495L64.6383 18.0427C65.0844 17.7117 65.1092 17.7117 65.3983 17.9269C65.5553 18.051 65.704 18.142 65.7288 18.142C65.7701 18.142 68.0091 16.8347 68.0999 16.7602C68.1247 16.7354 68.0421 16.6361 67.9182 16.5286C67.786 16.421 67.6869 16.2804 67.6951 16.2224C67.6951 16.1066 68.4552 15.4943 68.5956 15.4943C68.637 15.4943 68.8187 15.6185 68.9922 15.7757L69.3062 16.0652L70.7107 15.2296C71.479 14.7745 72.867 13.9471 73.8006 13.4093C74.7341 12.8633 75.5273 12.3834 75.5768 12.342C75.7338 12.1931 75.8908 12.3172 76.1882 12.8054ZM17.8519 15.5357C19.4134 16.0156 20.8427 17.1739 21.4953 18.4729C23.0733 21.5922 21.8754 25.2575 18.8185 26.7137C17.3066 27.4335 15.5717 27.5162 14.1176 26.9371L13.6136 26.7385L13.3079 27.0943C13.0683 27.3673 13.0188 27.4666 13.0931 27.5576C13.1757 27.6569 14.5555 28.6828 15.9352 29.6757L16.3896 30.0066L16.5796 29.7667L16.7696 29.5268L17.1992 29.8412C17.4306 30.0149 17.6206 30.1887 17.6206 30.23C17.6206 30.2797 17.0753 30.9664 16.4061 31.769L15.1916 33.2169L14.9107 32.9108C14.7372 32.7287 14.6463 32.555 14.6711 32.4722C14.8281 32.0006 14.8446 32.0255 13.8036 31.2146C12.7709 30.4038 12.1348 29.9074 9.7719 28.0292C7.47513 26.209 7.3099 26.0848 7.22728 26.0848C7.18597 26.0848 7.05378 26.2338 6.92986 26.4158L6.70679 26.755L6.33501 26.482C5.74842 26.06 5.74842 26.06 6.10368 25.5719C6.79767 24.6204 7.81386 23.2304 7.87996 23.1559C7.95431 23.0732 8.30131 23.1973 8.56568 23.3959C8.72266 23.5117 8.72266 23.52 8.56568 23.8095C8.4748 23.9916 8.44176 24.1239 8.49133 24.1653C8.61525 24.2812 11.4325 26.3662 11.6804 26.5316C11.9034 26.6723 11.9034 26.6723 12.1596 26.3248L12.4074 25.9773L11.8456 25.3816C10.8955 24.3804 10.4328 23.3462 10.2676 21.89C9.93714 18.8949 11.9447 16.1314 14.9438 15.4613C15.6625 15.2958 17.224 15.3371 17.8519 15.5357ZM83.3429 20.5083C83.5742 20.9385 83.5825 20.9716 83.4503 21.0709C83.3677 21.1288 83.3016 21.2033 83.3016 21.2281C83.3016 21.2612 84.0864 22.6595 85.0448 24.3473C86.5732 27.0363 86.8128 27.4087 86.9533 27.359C87.0689 27.3259 87.2011 27.3838 87.3994 27.5824C87.5564 27.7313 87.6803 27.8968 87.6803 27.9382C87.6803 28.0209 85.1109 29.6591 84.8961 29.7088C84.797 29.7336 84.293 29.0303 84.293 28.8649C84.293 28.8152 84.483 28.6663 84.7061 28.5422L85.1274 28.3022L84.673 27.4666C84.4252 26.995 84.1773 26.6309 84.1195 26.6475C84.0617 26.664 82.3763 27.5328 80.3769 28.5835C78.3693 29.6343 76.6674 30.5279 76.5848 30.5693C76.4526 30.6355 76.4526 30.6603 76.6096 30.9664C76.8326 31.4049 76.8244 31.4628 76.4774 31.7441C76.2295 31.9427 76.1634 31.9593 76.0725 31.8683C75.9651 31.7524 74.4945 29.5019 74.0815 28.8235C73.8336 28.4181 73.8501 28.3932 74.445 28.0623L74.8085 27.8637L74.9737 28.0954C75.0646 28.2195 75.1637 28.3188 75.1968 28.3188C75.2711 28.3188 75.9404 27.9547 77.477 27.0694C78.0719 26.7219 79.4433 25.9359 80.5339 25.3154C81.6244 24.7031 82.5828 24.1405 82.6654 24.0826C82.8059 23.975 82.7811 23.9088 82.3184 23.0235C82.0375 22.5023 81.7814 22.0472 81.7484 22.0141C81.7071 21.9728 81.3931 22.072 81.0461 22.2375L80.41 22.5188L80.2943 22.2458C80.0382 21.6335 79.9638 21.7245 81.4675 20.8558C82.2276 20.4173 82.905 20.0532 82.9711 20.0532C83.0455 20.045 83.2024 20.2353 83.3429 20.5083ZM90.1093 32.1165C90.3076 32.9852 90.2993 33.01 89.8697 33.068C89.6466 33.1093 89.4979 33.1672 89.4979 33.2334C89.4979 33.341 89.754 34.6069 90.2002 36.6257C90.3158 37.1718 90.3819 37.6351 90.3489 37.6682C90.291 37.7096 89.8532 37.8502 89.1509 38.0488C89.0435 38.0819 89.0022 37.9826 88.9196 37.5275C88.7791 36.6753 88.8039 36.6919 87.953 36.907C86.1106 37.3703 85.4909 37.5606 85.5075 37.6765C85.5157 37.7427 85.6066 38.1646 85.714 38.6197C85.8462 39.1906 85.904 39.7036 85.904 40.2745C85.904 41.0356 85.8875 41.1432 85.6314 41.6727C85.0118 42.9883 84.0864 43.675 82.6737 43.8818C81.2444 44.0887 79.6334 43.2365 78.9724 41.9292C78.8072 41.5983 78.5759 40.7212 78.171 38.8927C77.8571 37.4779 77.601 36.2947 77.601 36.2617C77.601 36.1872 78.2123 35.9307 78.3776 35.9307C78.4437 35.9307 78.518 36.0465 78.5511 36.1872C78.5841 36.3278 78.6585 36.4602 78.7163 36.4768C78.7741 36.5016 79.9308 36.2782 81.2857 35.9886C82.6489 35.699 84.7887 35.2357 86.0527 34.9709C88.5974 34.4331 88.4156 34.5324 88.2504 33.7795C88.1512 33.3079 88.2091 33.3244 87.1598 33.4816L86.4245 33.5892L86.2593 33.2086C86.1684 33.0018 86.0775 32.7287 86.0527 32.6129C86.0114 32.3978 86.028 32.3895 86.6145 32.2571C88.5808 31.8186 89.7953 31.5621 89.8862 31.5538C89.9358 31.5456 90.0349 31.8021 90.1093 32.1165ZM3.88127 32.0751C4.05476 32.1413 4.85615 32.406 5.67407 32.6625L7.14466 33.1341L7.09509 33.5065C7.07031 33.7133 7.04552 33.945 7.04552 34.0194C7.03726 34.3669 6.94638 34.3752 5.93844 34.127C5.40969 33.9863 4.96356 33.9036 4.94703 33.9367C4.87268 34.0691 4.1539 36.7829 4.18695 36.816C4.25304 36.8822 6.83071 37.2628 7.03726 37.238C7.19423 37.2214 7.26033 37.147 7.3099 36.9236C7.77256 35.0206 8.04519 34.4331 8.76397 33.7712C10.0032 32.6377 11.6473 32.4722 13.1757 33.3244C13.911 33.7381 14.6133 34.6979 14.8611 35.6411C15.0594 36.3775 15.0429 36.4933 14.3159 39.9021C14.1754 40.564 14.0019 41.4162 13.9276 41.7968C13.8449 42.1774 13.7458 42.5001 13.688 42.5249C13.6384 42.5415 13.3988 42.5084 13.151 42.4422C12.7048 42.3346 12.7048 42.3264 12.7048 42.012V41.6893L8.11955 40.5558C5.59971 39.927 3.50949 39.414 3.4847 39.4057C3.45165 39.4057 3.38556 39.5712 3.32773 39.778C3.26989 39.9849 3.19554 40.1752 3.15423 40.2C3.03857 40.2745 1.98106 39.7449 2.03063 39.6374C2.04715 39.5795 2.27848 38.6528 2.54286 37.5855C2.80724 36.5181 3.13771 35.1695 3.28642 34.5821L3.55079 33.5313L3.19554 33.4403C2.99726 33.3906 2.83202 33.3244 2.83202 33.2913C2.83202 33.2417 3.12118 32.2985 3.2038 32.0585C3.25337 31.9262 3.50122 31.9344 3.88127 32.0751ZM17.8271 48.1098C17.8436 48.2173 17.8767 48.6558 17.885 49.0861L17.9097 49.8721L17.4553 49.93C17.0009 49.9962 10.3254 50.6333 4.36045 51.1959C2.63374 51.3531 1.04748 51.5103 0.840937 51.5351L0.452634 51.5848L0.403064 51.2621C0.378278 51.0883 0.33697 50.716 0.312184 50.4347C0.254352 49.93 0.254352 49.93 0.493943 49.8804C0.617869 49.8555 4.26131 49.4419 8.57395 48.9537C12.8948 48.4738 16.6457 48.0519 16.9183 48.0105C17.7362 47.9029 17.7775 47.9112 17.8271 48.1098ZM83.756 50.7078C88.3908 51.3697 92.216 51.9488 92.2491 51.9819C92.3152 52.0398 92.1499 53.4629 92.0673 53.5705C92.0425 53.6036 91.6129 53.5705 91.1255 53.5126C89.8945 53.3471 86.3254 52.892 82.7646 52.437C75.6099 51.5269 74.7011 51.4028 74.635 51.3697C74.5772 51.3283 74.6267 50.9311 74.8333 49.7645C74.8746 49.5411 74.9159 49.4998 75.1059 49.4998C75.2298 49.4998 79.1211 50.0458 83.756 50.7078ZM77.9397 57.7405C78.2784 57.906 78.3528 57.9804 78.3115 58.1128C78.2867 58.1956 78.2454 58.3362 78.2206 58.4107C78.1793 58.5265 78.3363 58.6506 78.9807 58.9816C79.4268 59.2132 81.0213 60.0489 82.5167 60.8349C84.0204 61.6209 85.5818 62.44 86.0032 62.6634L86.7633 63.0688L86.9285 62.8537C87.0194 62.7379 87.102 62.6055 87.1185 62.5559C87.1598 62.4318 87.8373 62.9116 87.8373 63.0688C87.8455 63.2261 85.6644 67.3133 85.3092 67.818C84.8217 68.513 83.599 69.1087 82.6819 69.1087C81.641 69.1087 80.4513 68.4303 79.8895 67.5202C79.749 67.2968 79.749 67.2968 79.402 67.4209C78.8237 67.6195 77.9645 67.6608 77.3614 67.5036C75.866 67.123 74.8498 66.0226 74.5441 64.4589C74.3706 63.6066 74.5276 62.9365 75.1637 61.7037C75.4446 61.1576 76.023 60.0406 76.4443 59.2215C77.254 57.6495 77.3283 57.5254 77.4523 57.5254C77.4936 57.5254 77.7084 57.6247 77.9397 57.7405ZM12.3826 58.2783C13.341 58.5679 14.2333 59.2298 14.729 59.9993C14.8611 60.1896 14.8611 60.1896 15.1338 60.0572C15.3155 59.9579 15.3899 59.8752 15.3569 59.7841C15.1834 59.3456 15.1999 59.3125 15.6873 59.0726C15.9434 58.9402 16.183 58.8657 16.2243 58.9071C16.2574 58.9402 16.6374 59.809 17.0753 60.8349C17.9345 62.8786 17.9345 62.8289 17.3066 62.9447C17.0175 63.0027 16.8688 62.9116 16.7696 62.6303C16.7366 62.5145 16.2161 62.7213 16.2161 62.8537C16.2243 62.9034 16.2739 63.1681 16.34 63.4412C16.9679 66.0392 14.8777 68.6868 12.1926 68.695C10.8046 68.695 9.20184 67.8346 8.55742 66.7342C8.33435 66.3536 8.24348 66.3122 8.00388 66.4859C7.87996 66.577 7.8717 66.6266 7.94605 66.7755C7.99562 66.8665 8.03693 66.9824 8.03693 67.0237C8.03693 67.1396 7.11988 67.5615 7.03726 67.4788C7.00421 67.4457 6.70679 66.8748 6.37632 66.2129C6.05411 65.551 5.69885 64.8394 5.59145 64.6243L5.39317 64.2355L5.74016 63.9872C5.93018 63.8466 6.10368 63.7308 6.12846 63.7308C6.16151 63.7308 6.26065 63.8631 6.36806 64.0203C6.54981 64.3099 6.55808 64.3099 6.79767 64.1858C6.92986 64.1196 7.05378 64.0286 7.07857 63.9872C7.11161 63.9459 7.07031 63.6728 7.00421 63.3833C6.76462 62.3738 6.87202 61.472 7.34294 60.5205C8.26 58.6341 10.4246 57.6743 12.3826 58.2783ZM73.8006 66.1798L74.1475 66.5604L73.9245 66.7921L73.7014 67.0237L75.9569 69.4562C79.4599 73.2291 80.4265 74.2385 80.5339 74.2385C80.5835 74.2385 80.6991 74.164 80.7817 74.073C80.8644 73.982 80.9635 73.9076 80.9965 73.9076C81.104 73.9076 81.5088 74.5446 81.4675 74.6522C81.4096 74.826 79.1377 76.8861 79.0055 76.8861C78.9311 76.8861 77.5927 76.307 76.023 75.6037C74.4615 74.8921 73.0983 74.2964 72.9992 74.2716C72.8257 74.222 72.8505 74.3213 73.3957 76.4476C73.7097 77.6639 74.1062 79.2111 74.2715 79.8813L74.5854 81.0975L73.6766 81.958C73.1727 82.4296 72.6109 82.9509 72.4208 83.1246L72.0738 83.4307L71.8508 83.0419C71.6608 82.7192 71.6442 82.6282 71.7269 82.4958C71.8095 82.3551 71.7847 82.2972 71.5616 82.0325C71.1816 81.6022 66.2741 76.307 65.6049 75.6037L65.0513 75.0245L64.8365 75.2314L64.63 75.4299L64.2582 75.0659C64.0517 74.8591 63.8947 74.6522 63.903 74.6026C63.936 74.4785 66.7367 72.1701 66.8524 72.1701C66.902 72.1701 67.0342 72.319 67.1581 72.5093L67.3729 72.8485L67.1829 73.0471L67.0011 73.2374L67.2077 73.5104C67.3233 73.6593 67.8769 74.3047 68.4304 74.9418C68.9839 75.5789 69.7606 76.4642 70.1406 76.911C70.5289 77.3577 70.8676 77.7052 70.8842 77.6887C70.9007 77.6639 70.8015 77.1923 70.6693 76.6296C70.1489 74.4454 69.8349 72.9809 69.8762 72.923C69.8927 72.8816 70.2067 72.7327 70.5702 72.5837C71.1981 72.3355 71.2311 72.3024 71.3964 71.9136C71.4955 71.6902 71.6277 71.5082 71.6938 71.5082C71.7516 71.5082 72.2804 71.6819 72.867 71.8887C75.2464 72.741 76.0478 73.0057 76.0891 72.9726C76.1056 72.9478 75.8825 72.6334 75.5768 72.2776C75.2711 71.9218 74.4119 70.8959 73.6601 70.0023L72.2887 68.3724L71.9747 68.6206C71.6277 68.8936 71.5038 68.8936 71.1237 68.5709L70.8759 68.3724L71.8673 67.3299C72.4043 66.759 72.9413 66.1798 73.057 66.0474C73.1727 65.9233 73.3048 65.8075 73.3544 65.8075C73.404 65.7992 73.6023 65.973 73.8006 66.1798ZM24.3209 70.325C25.0149 71.0448 25.7171 71.7729 25.8741 71.9549L26.1715 72.2776L25.7584 72.6334L25.3536 72.9974L25.1801 72.832C25.0809 72.741 24.957 72.6665 24.8992 72.6665C24.8 72.6665 22.305 75.0493 19.0333 78.2596L17.761 79.5172L17.9345 79.7406C18.0337 79.8647 18.1163 80.0054 18.1163 80.0385C18.1163 80.1378 17.4801 80.5514 17.3975 80.5101C17.3562 80.5018 16.3896 79.5089 15.2494 78.3092C12.994 75.9595 12.7792 75.6533 12.5644 74.5943C12.2752 73.0967 13.0931 71.4171 14.4646 70.6973C15.1751 70.3333 15.6212 70.2423 16.4722 70.2836C17.6206 70.3498 18.1245 70.6394 19.4382 71.9549L20.4709 72.9892L21.421 72.1535C21.9415 71.6902 22.5363 71.1772 22.7263 71.0034L23.0899 70.689L22.7098 70.2836C22.5033 70.0602 22.3298 69.8534 22.3298 69.8203C22.3298 69.7293 22.9164 69.026 22.9907 69.026C23.0238 69.026 23.6186 69.6134 24.3209 70.325ZM27.3116 72.6334C27.9147 72.9395 28.1956 73.3615 28.1956 73.9655C28.1874 75.1155 27.0059 75.7774 25.998 75.19C25.3784 74.826 25.1305 73.9903 25.461 73.3449C25.651 72.9726 25.841 72.7989 26.2128 72.6334C26.5928 72.4679 26.9812 72.4679 27.3116 72.6334ZM29.6167 73.6676L29.9306 73.7504L29.8067 74.0482C29.7406 74.2054 29.6827 74.3543 29.6827 74.3709C29.6827 74.3792 29.9802 74.5529 30.3519 74.7515C31.9382 75.5954 32.9544 76.911 33.4088 78.6981C33.5493 79.2607 33.574 79.5669 33.5493 80.3115C33.4914 81.8918 32.9131 83.1908 31.7564 84.3326C29.8976 86.1776 27.0803 86.5831 24.7174 85.3585C24.4944 85.2427 24.4778 85.251 24.3539 85.4909C24.2796 85.6233 24.1887 85.7391 24.1391 85.7391C24.073 85.7391 23.2468 85.3503 23.1642 85.2758C23.1477 85.2675 23.4286 84.7545 23.7838 84.1506C24.1308 83.5466 24.5109 82.8929 24.6265 82.6944C24.7422 82.4958 24.8744 82.3138 24.9322 82.2889C24.9901 82.2724 25.1801 82.3386 25.3453 82.4461C25.6097 82.6116 25.6427 82.6695 25.6014 82.8929C25.5684 83.1494 25.5849 83.166 26.0558 83.3811C26.7746 83.7038 27.4025 83.8031 28.0717 83.6872C29.6001 83.4307 30.7485 82.38 31.1368 80.8576C31.5251 79.3435 30.7403 77.6473 29.2862 76.8282C28.7822 76.5469 28.7409 76.5386 28.6583 76.671C28.4022 77.0847 28.4104 77.0847 28.0634 76.9027C27.3529 76.5304 27.3447 76.6545 28.113 75.2231C29.1209 73.3532 28.9888 73.4856 29.6167 73.6676ZM63.7129 74.9749C63.9443 75.5127 63.936 75.612 63.6386 75.7113C63.4486 75.7774 63.4073 75.8354 63.4486 75.9512C63.4734 76.0339 64.0021 77.3081 64.6135 78.7891C65.2248 80.2701 65.8858 81.867 66.0758 82.3469C67.2325 85.1765 67.1085 84.9862 67.6786 84.9035C67.8521 84.8704 67.8934 84.92 67.9843 85.2841C68.0421 85.5075 68.0834 85.706 68.0669 85.7143C68.0338 85.7557 64.44 87.2284 64.3821 87.2284C64.3161 87.2284 64.0517 86.6823 64.0517 86.5334C64.0517 86.4755 64.2004 86.31 64.3821 86.1611C64.7044 85.9046 64.7126 85.8963 64.597 85.6316C63.8699 83.8858 62.0275 79.964 61.978 80.0467C61.9449 80.1047 61.8954 81.6436 61.8706 83.4638C61.8375 85.2841 61.7962 87.1291 61.7714 87.5676L61.7219 88.3619L60.3835 88.9163L59.0533 89.4706L58.8633 89.239C58.5989 88.8997 58.5493 88.7012 58.7228 88.5936C59.1111 88.3619 59.1194 88.3371 59.0285 88.0889C58.979 87.9565 58.7559 87.4022 58.5328 86.8561C56.9218 82.9757 55.476 79.4676 55.4264 79.3352C55.3933 79.2276 55.3273 79.2028 55.2116 79.2359C55.1207 79.2607 54.9803 79.3104 54.8976 79.3352C54.782 79.3683 54.7159 79.2855 54.5672 78.938C54.468 78.6981 54.3854 78.4582 54.3854 78.4085C54.3854 78.3589 54.6581 78.2182 54.9885 78.1024C56.9961 77.3908 58.0454 77.0433 58.0784 77.0764C58.0949 77.1013 58.1363 77.3164 58.161 77.5646L58.2023 78.0114L57.8636 78.1272C57.6819 78.1851 57.5249 78.2761 57.5249 78.3341C57.5249 78.3837 57.938 79.3021 58.4337 80.3694C58.9376 81.4367 59.4499 82.5206 59.5655 82.7771C59.7969 83.3066 59.9208 83.3811 59.9208 83.017C59.9208 82.7936 59.9786 81.7677 60.1686 78.3341C60.2182 77.5149 60.2761 76.6545 60.3008 76.4228L60.3421 75.9926L60.8544 75.7609C61.1353 75.6368 61.8127 75.3141 62.358 75.0576C62.9033 74.7929 63.3907 74.5695 63.4403 74.5695C63.4899 74.5695 63.6138 74.7515 63.7129 74.9749ZM36.6474 77.1095L36.6309 77.4488L37.0605 77.548C38.9938 77.9866 40.4809 79.1532 41.3484 80.8989C41.7532 81.7181 41.8688 82.2972 41.8606 83.5052C41.8523 84.5229 41.8358 84.6884 41.6045 85.342C41.0592 86.9306 40.043 88.0724 38.5228 88.8418C37.2753 89.4706 35.7221 89.6196 34.3424 89.2472C34.1937 89.2059 34.1441 89.2472 34.0615 89.4954C33.9541 89.8264 33.9541 89.8264 33.3179 89.6775C32.9544 89.5947 32.8635 89.5368 32.8718 89.4127C32.8883 89.2472 33.8054 86.219 33.8549 86.1611C33.8797 86.1445 34.0697 86.2025 34.2845 86.2935C34.615 86.4259 34.6811 86.492 34.6811 86.6658C34.6811 86.7899 34.6976 86.9057 34.7224 86.9306C34.7472 86.9554 35.0281 87.0133 35.3503 87.0629C37.7462 87.4353 39.886 85.3254 39.5308 82.9343C39.4234 82.2062 39.1094 81.5443 38.5889 80.9817C38.1015 80.4439 37.6471 80.1543 36.9366 79.9392C36.2508 79.7323 36.1269 79.7406 36.1269 79.964C36.1269 80.3198 36.0443 80.3529 35.4908 80.2122C35.2016 80.1378 34.9703 80.0302 34.9703 79.9805C34.9703 79.9309 35.1603 79.1945 35.3834 78.3423C35.6147 77.4901 35.7965 76.7786 35.7965 76.7538C35.7965 76.7289 35.9947 76.7207 36.2343 76.7372L36.6639 76.762L36.6474 77.1095ZM54.1128 78.9298C54.0797 79.1035 54.0549 79.3104 54.0549 79.3848C54.0549 79.5007 53.9806 79.5338 53.7327 79.5338C53.5592 79.5338 53.3775 79.5834 53.3279 79.633C53.2866 79.691 53.1296 80.2619 52.9892 80.8989C52.8405 81.536 52.7083 82.1235 52.6835 82.1979C52.6422 82.322 52.7 82.3469 53.0222 82.3469H53.4105L53.3527 82.9012C53.3196 83.2156 53.2618 83.4969 53.2205 83.5383C53.1875 83.5797 52.9644 83.6293 52.7331 83.6541C52.3943 83.6872 52.3117 83.7203 52.2787 83.8692C52.0226 84.9697 51.6673 86.492 51.4525 87.4353C51.3038 88.0724 51.0642 89.1149 50.9155 89.7519C50.7668 90.389 50.6181 90.9434 50.585 90.9847C50.5437 91.0261 50.2628 90.993 49.9323 90.9103L49.3457 90.7696L48.8418 91.0675C48.5609 91.233 48.313 91.3571 48.2965 91.3405C48.2634 91.2991 47.8173 90.2566 46.9911 88.2626C46.7433 87.6669 45.9006 85.6564 45.1157 83.7948C43.6864 80.4108 43.6864 80.4025 43.4303 80.3777C43.1742 80.3529 43.1742 80.3446 43.1164 79.8068C43.0833 79.5089 43.0833 79.2442 43.1081 79.2194C43.1329 79.1863 44.1574 79.1532 45.3801 79.1366L47.6108 79.1035V79.3931C47.6108 79.8647 47.4786 80.1129 47.239 80.1129C47.1233 80.1129 47.0324 80.1626 47.0324 80.2122C47.0324 80.2701 47.2142 80.7997 47.429 81.3954L47.8256 82.471L49.0814 82.4627C49.7754 82.4627 50.3619 82.4296 50.3867 82.4048C50.4446 82.3551 50.9155 80.0964 50.9155 79.8895C50.9155 79.8233 50.7833 79.8068 50.4693 79.8399C50.2297 79.8647 50.0067 79.8564 49.9819 79.8151C49.9571 79.7737 49.9241 79.5172 49.9158 79.2442L49.8828 78.7477L50.6263 78.7064C51.0394 78.6816 51.9978 78.6567 52.7661 78.6402L54.1623 78.6154L54.1128 78.9298Z" fill="#E7E5E0"/>
<path d="M37.5751 4.87864C37.0959 4.94483 36.2036 5.34197 35.8071 5.6481C35.3196 6.03697 34.8735 6.63269 34.6339 7.22013C34.2704 8.13025 34.4026 9.47888 34.9478 10.4138C35.1957 10.8606 35.9145 11.5391 36.3854 11.7707C37.7981 12.4988 39.5331 12.2258 40.6402 11.1088C42.466 9.28031 41.929 6.28519 39.5827 5.19304C38.9713 4.91173 38.1617 4.78762 37.5751 4.87864Z" fill="#E7E5E0"/>
<path d="M62.6465 7.36205C62.4895 7.78402 62.4069 7.99914 62.1095 8.7686C61.9525 9.19057 61.8203 9.57116 61.8203 9.62081C61.8203 9.76146 63.7123 10.6302 64.1088 10.6716C64.588 10.7295 64.8276 10.655 65.1994 10.3241C65.786 9.79456 65.8107 8.99199 65.2655 8.4211C65.0341 8.18116 64.4228 7.86675 62.9935 7.25449C62.7374 7.13866 62.7208 7.13866 62.6465 7.36205Z" fill="#E7E5E0"/>
<path d="M24.6014 9.927C23.9156 10.3407 23.5273 10.6303 23.5273 10.713C23.5273 10.8868 24.8988 12.8477 25.0145 12.8477C25.064 12.8477 25.5432 12.5746 26.0885 12.2354C27.2038 11.5569 27.4517 11.2591 27.4517 10.622C27.4517 9.86908 26.956 9.3561 26.1711 9.30646C25.6754 9.28164 25.6671 9.28164 24.6014 9.927Z" fill="#E7E5E0"/>
<path d="M73.2609 16.0069C73.0378 16.1558 72.4099 16.5612 71.8729 16.9087L70.9062 17.5458L71.5424 18.1333C71.8977 18.4559 72.2033 18.7207 72.2281 18.7207C72.2612 18.7207 73.2691 16.7102 73.6987 15.8C73.74 15.709 73.6987 15.7256 73.2609 16.0069Z" fill="#E7E5E0"/>
<path d="M15.4131 17.769C14.1243 18.0585 13.1246 18.9852 12.7033 20.2842C12.5876 20.6317 12.5711 20.9047 12.5959 21.5087C12.6372 22.1872 12.6785 22.3609 12.9346 22.8822C13.4799 23.9909 14.4383 24.719 15.6362 24.9341C17.0324 25.1823 18.503 24.4956 19.3127 23.2297C19.7506 22.5512 19.8745 22.0382 19.8332 21.1695C19.7671 19.9863 19.3127 19.101 18.4204 18.4309C17.5447 17.769 16.4541 17.529 15.4131 17.769Z" fill="#E7E5E0"/>
<path d="M81.7539 38.363C81.1095 38.4541 80.5642 38.5533 80.5394 38.5782C80.465 38.6609 80.9194 40.6053 81.0847 40.9031C81.3325 41.3499 81.8035 41.5816 82.357 41.5402C82.8857 41.4988 83.1749 41.3085 83.4475 40.8452C83.6706 40.4729 83.6541 40.1419 83.3732 38.9174C83.241 38.33 83.1749 38.1645 83.0675 38.1727C82.9849 38.181 82.3983 38.2638 81.7539 38.363Z" fill="#E7E5E0"/>
<path d="M10.8618 35.1613C10.7626 35.1861 10.5313 35.335 10.3578 35.5005C10.1099 35.7322 9.99427 35.939 9.87034 36.3858C9.63075 37.2132 9.4903 37.9082 9.54813 37.9661C9.65554 38.0736 12.0349 38.7438 12.0928 38.6859C12.1175 38.6445 12.258 38.1316 12.4067 37.5441C12.6132 36.6588 12.6463 36.4106 12.5802 36.1624C12.3737 35.4178 11.6714 35.0041 10.8618 35.1613Z" fill="#E7E5E0"/>
<path d="M77.8634 61.6051C77.1612 62.8793 76.8555 63.566 76.8555 63.8969C76.8555 65.1132 78.2517 65.7089 79.1275 64.865C79.2762 64.7161 79.6397 64.1286 79.9454 63.5577L80.4906 62.5152L79.3505 61.8781C78.7226 61.5306 78.1774 61.2493 78.136 61.2493C78.0865 61.2493 77.9625 61.4065 77.8634 61.6051Z" fill="#E7E5E0"/>
<path d="M82.1842 64.6407C81.7051 65.6005 81.6555 65.8321 81.8455 66.2045C82.1677 66.8167 83.0683 66.8912 83.4648 66.3451C83.6466 66.0969 84.3736 64.7069 84.3736 64.5993C84.3736 64.5166 82.8865 63.7306 82.7213 63.7306C82.68 63.7306 82.4321 64.136 82.1842 64.6407Z" fill="#E7E5E0"/>
<path d="M10.6825 60.4966C9.97196 60.7283 9.5093 61.1916 9.31102 61.8783C9.20362 62.2672 9.20362 62.9043 9.31102 62.9043C9.32754 62.9043 10.1124 62.532 11.0543 62.0686L12.7644 61.233L12.5662 61.0261C12.1531 60.5794 11.2195 60.3146 10.6825 60.4966Z" fill="#E7E5E0"/>
<path d="M12.1928 64.5827C11.2674 65.0047 10.5156 65.3853 10.5156 65.4349C10.5156 65.5756 11.0774 66.0472 11.4162 66.1961C12.5067 66.6512 13.8121 65.9644 14.0599 64.7978C14.1591 64.3345 14.1095 63.8133 13.9525 63.8133C13.9029 63.8215 13.1098 64.1608 12.1928 64.5827Z" fill="#E7E5E0"/>
<path d="M15.595 72.7498C15.1241 72.9814 14.868 73.3951 14.8597 73.9329C14.8514 74.5038 15.0001 74.7355 16.0329 75.7532L16.8508 76.5723L17.7265 75.6042C18.214 75.0747 18.6105 74.5948 18.6105 74.5452C18.6105 74.388 16.9417 72.7663 16.6855 72.6753C16.3303 72.5429 15.9585 72.5677 15.595 72.7498Z" fill="#E7E5E0"/>
<path d="M48.7416 83.8936C48.4772 83.9184 48.3533 83.9598 48.3781 84.026C48.3946 84.0839 48.6507 84.7872 48.9399 85.5898L49.4687 87.0625L49.5595 86.7481C49.6174 86.5826 49.7578 85.9042 49.8735 85.2423C49.9974 84.5804 50.1131 83.9929 50.1296 83.935C50.1626 83.8357 49.7082 83.8192 48.7416 83.8936Z" fill="#E7E5E0"/>
</g>
<defs>
<clipPath id="clip0_354_400">
<rect width="93" height="92" fill="white"/>
</clipPath>
</defs>
</svg>
