<svg width="30" height="30" viewBox="0 0 30 30" fill="none" xmlns="http://www.w3.org/2000/svg">
<path d="M30.0884 10.2733V26.4171C30.0884 28.0383 29.0492 29.3524 27.7673 29.3524H2.23517C0.95322 29.3524 -0.0859375 28.0383 -0.0859375 26.4171V10.2733C-0.0859375 9.46291 0.433757 8.80571 1.07461 8.80571C1.23523 8.7611 1.40143 8.7611 1.56205 8.80571L15.0012 20.5467L28.4636 8.80571C28.6168 8.76521 28.7747 8.76521 28.9278 8.80571C29.5687 8.80571 30.0884 9.46291 30.0884 10.2733ZM0.494338 2.70042L0.680026 2.93524L15.0012 14.6762L29.3689 2.93524H29.5081C29.925 2.64729 30.1562 2.062 30.0884 1.46762C30.0884 0.6572 29.5687 0 28.9278 0H1.07461C0.433757 0 -0.0859375 0.6572 -0.0859375 1.46762C-0.0799026 1.97982 0.141066 2.44946 0.494338 2.70042Z" fill="#C9B1AA"/>
</svg>
