<svg width="30" height="30" viewBox="0 0 30 30" fill="none" xmlns="http://www.w3.org/2000/svg">
<rect width="30" height="30" rx="5" fill="#C9B1AA"/>
<path d="M9.72516 20.2293C13.3538 23.858 17.7735 26.6579 21.3769 26.6579C22.9967 26.6579 24.4155 26.0929 25.558 24.8373C26.2233 24.0965 26.6379 23.2302 26.6379 22.3764C26.6379 21.7486 26.3993 21.1459 25.7966 20.719L21.9545 17.9819C21.3644 17.5801 20.8747 17.3792 20.4227 17.3792C19.8451 17.3792 19.3429 17.7056 18.7653 18.2707L17.8739 19.1495C17.7358 19.2877 17.56 19.3504 17.3968 19.3504C17.1959 19.3504 17.0201 19.2751 16.882 19.2123C16.1161 18.798 14.7851 17.6554 13.5421 16.425C12.3116 15.1945 11.1691 13.8635 10.7673 13.0851C10.692 12.947 10.6292 12.7712 10.6292 12.5829C10.6292 12.4196 10.6794 12.2564 10.8175 12.1183L11.6964 11.2017C12.2614 10.6241 12.5879 10.1219 12.5879 9.54435C12.5879 9.09237 12.387 8.60267 11.9726 8.01258L9.27313 4.20815C8.83368 3.60548 8.21846 3.3418 7.54046 3.3418C6.71177 3.3418 5.84541 3.71846 5.11716 4.43417C3.89927 5.60187 3.35938 7.04578 3.35938 8.64033C3.35938 12.2439 6.10909 16.6133 9.72516 20.2293Z" fill="#3F3F3F"/>
</svg>
