<svg width="30" height="30" viewBox="0 0 30 30" fill="none" xmlns="http://www.w3.org/2000/svg">
<path fill-rule="evenodd" clip-rule="evenodd" d="M29.9995 28.2666C30.0103 28.7293 29.8399 29.1717 29.5257 29.4967C29.2115 29.8217 28.7791 30.0027 28.3236 30L8.87668 29.8704C8.64619 29.8772 8.41529 29.8366 8.19775 29.7512C7.98021 29.6658 7.78048 29.5373 7.61049 29.3734C7.4405 29.2095 7.30373 29.0134 7.20833 28.797C7.11293 28.5806 7.06086 28.3482 7.05522 28.1138C7.04959 27.8793 7.0905 27.6476 7.17553 27.4324C7.26056 27.2172 7.38795 27.0229 7.55011 26.8612C7.71227 26.6994 7.90588 26.5736 8.11939 26.491C8.33289 26.4085 8.56192 26.371 8.79281 26.3808L24.0911 26.4827L0.533636 2.97235C0.203413 2.64279 0.0116424 2.19751 0.000512786 1.73447C-0.0106168 1.27143 0.159806 0.828569 0.47429 0.5033C0.788773 0.17803 1.22156 -0.00299886 1.67743 3.75906e-05C2.13331 0.00307404 2.57494 0.189927 2.90516 0.519491L26.4626 24.0299L26.0891 8.49132C26.0753 8.25696 26.1081 8.02364 26.1855 7.80528C26.2629 7.58692 26.3834 7.388 26.5396 7.22038C26.6959 7.05276 26.8848 6.91989 27.0951 6.82967C27.3053 6.73946 27.5327 6.69376 27.7635 6.69529C27.9943 6.69683 28.2239 6.74557 28.4386 6.83862C28.6533 6.93167 28.8486 7.0671 29.013 7.23686C29.1774 7.40661 29.3074 7.6072 29.3953 7.82666C29.4832 8.04612 29.5273 8.27995 29.5247 8.5142L29.9995 28.2666Z" fill="#3F3F3F"/>
</svg>
